<svg width="32" height="32" viewBox="0 0 32 32" fill="none" xmlns="http://www.w3.org/2000/svg">
<g clip-path="url(#clip0_311_2132)">
<path d="M15.2078 0.175931L0.781167 6.91593C0.683606 6.96067 0.600958 7.0325 0.543061 7.12288C0.485164 7.21325 0.454457 7.31836 0.454598 7.42569C0.454738 7.53302 0.485718 7.63805 0.543852 7.72827C0.601985 7.8185 0.684822 7.89011 0.782499 7.9346L15.3225 14.6253C15.7518 14.8226 16.2478 14.8226 16.6772 14.6253L31.2172 7.9346C31.3149 7.89024 31.3978 7.81873 31.4561 7.72859C31.5143 7.63844 31.5455 7.53345 31.5457 7.42612C31.546 7.31879 31.5154 7.21364 31.4577 7.12319C31.3999 7.03274 31.3173 6.9608 31.2198 6.91593L16.7918 0.175931C16.5439 0.0600563 16.2735 0 15.9998 0C15.7261 0 15.4558 0.0600563 15.2078 0.175931V0.175931Z" fill="#7C3AED"/>
<path opacity="0.64" d="M31.22 15.5679L28.24 14.1759C28.0266 14.0761 27.794 14.0241 27.5584 14.0234C27.3229 14.0228 27.09 14.0734 26.876 14.1719L16.6773 18.8652C16.4649 18.9629 16.2338 19.0135 16 19.0135C15.7662 19.0135 15.5351 18.9629 15.3227 18.8652L5.12266 14.1719C4.90885 14.0736 4.67621 14.0231 4.44089 14.0237C4.20558 14.0244 3.97324 14.0763 3.76 14.1759L0.779998 15.5679C0.682495 15.6127 0.599941 15.6847 0.542162 15.7751C0.484383 15.8656 0.453815 15.9707 0.454096 16.0781C0.454377 16.1854 0.485494 16.2904 0.543746 16.3805C0.601998 16.4707 0.68493 16.5422 0.782666 16.5865L15.3227 23.2759C15.535 23.3741 15.7661 23.4249 16 23.4249C16.2339 23.4249 16.465 23.3741 16.6773 23.2759L31.2173 16.5865C31.3151 16.5422 31.398 16.4707 31.4563 16.3805C31.5145 16.2904 31.5456 16.1854 31.5459 16.0781C31.5462 15.9707 31.5156 15.8656 31.4578 15.7751C31.4001 15.6847 31.3175 15.6127 31.22 15.5679Z" fill="#C4B5FD"/>
<path d="M31.22 24.1438L28.24 22.7518C28.0266 22.6521 27.794 22.6001 27.5584 22.5994C27.3229 22.5987 27.09 22.6494 26.876 22.7478L16.6773 27.4398C16.4649 27.5375 16.2338 27.5881 16 27.5881C15.7662 27.5881 15.5351 27.5375 15.3227 27.4398L5.12266 22.7465C4.90885 22.6482 4.6762 22.5977 4.44089 22.5984C4.20558 22.5991 3.97323 22.651 3.76 22.7505L0.779996 24.1438C0.682868 24.1889 0.600685 24.2608 0.543182 24.3511C0.485678 24.4414 0.455265 24.5463 0.455545 24.6534C0.455826 24.7604 0.48679 24.8651 0.544766 24.9552C0.602742 25.0452 0.685301 25.1166 0.782663 25.1612L15.3227 31.8518C15.752 32.0492 16.248 32.0492 16.6773 31.8518L31.2173 25.1612C31.3147 25.1166 31.3973 25.0452 31.4552 24.9552C31.5132 24.8651 31.5442 24.7604 31.5444 24.6534C31.5447 24.5463 31.5143 24.4414 31.4568 24.3511C31.3993 24.2608 31.3171 24.1889 31.22 24.1438Z" fill="#1DB5BE"/>
</g>
<defs>
<clipPath id="clip0_311_2132">
<rect width="32" height="32" fill="white"/>
</clipPath>
</defs>
</svg>
